/* XPM */
static char *_36304d437ce41e399979574cefcabb9XGc5hFjYUDks4vrh[] = {
/* columns rows colors chars-per-pixel */
"48 32 60 1 ",
"  c None",
". c #1A0F0F",
"X c #241310",
"o c #381B13",
"O c #7A3519",
"+ c #633A28",
"@ c #663F2E",
"# c #2E4E27",
"$ c #35562B",
"% c #3C5D2D",
"& c #2C4D32",
"* c #315334",
"= c #345734",
"- c #3E6337",
"; c #6E402C",
": c #6B473C",
"> c #774630",
", c #744432",
"< c #754935",
"1 c #456730",
"2 c #446933",
"3 c #497039",
"4 c #4B7539",
"5 c #517A3B",
"6 c #775041",
"7 c #785141",
"8 c #B84D1F",
"9 c #83552D",
"0 c #8A5C2F",
"q c #964E32",
"w c #8A5036",
"e c #906530",
"r c #966632",
"t c #9E6E34",
"y c #B8672A",
"u c #B8782A",
"i c #B5753A",
"p c #D15F21",
"a c #C47F33",
"s c #C27E3E",
"d c #805745",
"f c #885D46",
"g c #8F6248",
"h c #96664A",
"j c #806559",
"k c #8C6F61",
"l c #5A8039",
"z c #60873B",
"x c #688F3B",
"c c #CA933E",
"v c #D49F3D",
"b c #EBA434",
"n c #F2AE34",
"m c #F5B133",
"M c #FABB37",
"N c #FCBE38",
"B c #A68476",
"V c #AD8876",
"C c #BD947B",
"Z c #EBB97C",
/* pixels */
"                                                ",
"                                   ssNss        ",
"                                  sNmNmNs       ",
"                                 NbNNmNNmN      ",
"                                 smbNmNbms      ",
"   #                   <<         sNmNbNs ini   ",
"    ##%%%11           <tr@         ssNss inMni  ",
"     $2llzx1         <t0r9@       =5---3*nMMbMi ",
"     $l2zz11         <t0r9@       ==333**inbbMM ",
"     $4l22lx1       <t9r9r0@        *3* &-inMni ",
"     $44lz2z1       <t099r0@        *5* &3-iMi  ",
"     $l$4lz2%       <t0r9r0@         *5*&3&-&   ",
"      $$44$2z1       <t9r0@          *5*&3&&&   ",
"        $$$42%        @@@@           *3*3&      ",
"           $$$                       *-*3&      ",
"                                       &3&      ",
"                                                ",
"                                      .   .     ",
"     6666            eeqqq             . .      ",
"    6ffff6         eeZZyyyqq           . .      ",
"   6fdhhdf6       eccZZaayyyq      XXXX . XXXX  ",
"  6fddhddff6      eZvvvvZaayq     XoBoo...ooBoX ",
"  6ffdddffg6     e;++vvvvvvayq   XB8ooO...Ooo8BX",
"  6gffffgg7:     e>>>+++++vvae   Xo8oOp...pOo8oX",
"  :dgggf77:      evvvw>>>>++;e    Xo8O8o.o8O88X ",
"   :7777::        qyyvvvZvww>      oO8op.po8Oo  ",
"    ::::Vj        qvuyyyyyvvq       ooO8.8Ooo   ",
"      jVVj         qqvvuuuqq         XBo.oBX    ",
"      kCCk           qqqqq            XX XX     ",
"     kCCVk                                      ",
"    kCVCCk                                      ",
"    kCCCk                                       "
};
