/* XPM */
static char *_dda3ff22be34cf9a54ac94f9025ca1akmXGRieU7JCM5vjg[] = {
/* columns rows colors chars-per-pixel */
"20 30 34 1 ",
"  c None",
". c #1C1C1F",
"X c #28282B",
"o c #2C2C30",
"O c #402E30",
"+ c #553A3A",
"@ c #753030",
"# c #783A3D",
"$ c #3F4921",
"% c #505726",
"& c #5E6429",
"* c #777431",
"= c #323942",
"- c #393940",
"; c #4B555E",
": c #634440",
"> c #634D49",
", c #715148",
"< c #785A53",
"1 c #435361",
"2 c #604374",
"3 c #4B6275",
"4 c #8C3430",
"5 c #8A3E3E",
"6 c #A14343",
"7 c #B35249",
"8 c #82604F",
"9 c #BA8A79",
"0 c #6E4A83",
"q c #764C88",
"w c #7D4E8D",
"e c #8C5296",
"r c #9D58A2",
"t c #DEA48A",
/* pixels */
"                    ",
"       0$$000       ",
"     00$*&$ee00     ",
"    0ee$&&$wwee0    ",
"    2rr$%%$eewe2    ",
"   2erwrweeweewr2   ",
"   2eeweweeweeqe2   ",
"   2wqeeweeeqwwq2   ",
"   2wqweqwweqweq2   ",
"   22222222222222   ",
"    +++++ +++::+O   ",
"   O+9;ttt;t+,+,O   ",
"   O+<;ttt;tt+:+O   ",
"   @4<ttttttt<4@    ",
"  O,:O<<999<<O:,O   ",
"  OOO>tt<tt55 OOO   ",
"      #675777#      ",
"      #7   77#      ",
"      #7   55#      ",
"       66  66#      ",
"     =3             ",
"    =333==333       ",
"          =3        ",
"             o.     ",
"    .oX.    oo.     ",
"           .-.      ",
"                    ",
"                    ",
"                    ",
"                    "
};
